# xmcd
#
# Track frame offsets: 
#        150
#        18420
#        31850
#        42545
#        59565
#        74562
#        92965
#        108112
#        125395
#        144672
#        156382
#        180585
#        198785
#        219420
#
# Disc length: 3847 seconds
#
# Revision: 2
# Processed by: cddbd v1.5.1PL0 Copyright (c) Steve Scherf et al.
# Submitted via: ExactAudioCopy v0.95a3
#
DISCID=ca0f050e
DTITLE=Stevie Ray Vaughan - In The Open
DYEAR=1979
DGENRE=Blues
TTITLE0=Pride and Joy
TTITLE1=Love Struck Baby
TTITLE2=Wham
TTITLE3=You Can Have My Husband
TTITLE4=Ti Na Ni Na Nu
TTITLE5=Maybe
TTITLE6=Oh Yeah!
TTITLE7=Sugar Coated Love
TTITLE8=I'll Change
TTITLE9=Hip Hip Baby
TTITLE10=Collins Shuffle
TTITLE11=In The Open
TTITLE12=Open Arms
TTITLE13=Tin Pan Alley (w/Robert Cray)
EXTD=
EXTT0=
EXTT1=
EXTT2=
EXTT3=
EXTT4=
EXTT5=
EXTT6=
EXTT7=
EXTT8=
EXTT9=
EXTT10=
EXTT11=
EXTT12=
EXTT13=
PLAYORDER=
